<?xml version="1.0" standalone="no"?>
<!DOCTYPE svg PUBLIC "-//W3C//DTD SVG 20010904//EN"
 "http://www.w3.org/TR/2001/REC-SVG-20010904/DTD/svg10.dtd">
<svg version="1.0" xmlns="http://www.w3.org/2000/svg"
 width="900.000000pt" height="900.000000pt" viewBox="0 0 900.000000 900.000000"
 preserveAspectRatio="xMidYMid meet">
<metadata>
Created by potrace 1.10, written by Peter Selinger 2001-2011
</metadata>
<g transform="translate(0.000000,900.000000) scale(0.100000,-0.100000)"
fill="#000000" stroke="none">
<path d="M4950 8961 c-94 -20 -201 -121 -272 -256 -14 -27 -52 -111 -83 -185
-149 -349 -158 -358 -380 -345 -60 4 -148 13 -194 21 -124 21 -344 19 -406 -4
-109 -39 -166 -90 -212 -190 -26 -55 -27 -63 -26 -232 0 -116 6 -205 17 -265
9 -49 16 -141 16 -204 l0 -115 -46 -43 -47 -43 -201 0 c-139 0 -227 -5 -286
-16 -213 -39 -384 -93 -438 -140 -36 -31 -37 -34 -36 -98 1 -71 14 -95 66
-122 30 -16 99 -19 114 -5 14 13 132 47 289 83 131 30 423 37 549 13 162 -31
276 -66 411 -128 50 -22 97 -46 105 -51 8 -6 31 -20 50 -30 73 -40 238 -172
317 -253 95 -97 172 -197 233 -302 78 -135 154 -318 141 -339 -3 -6 -52 -34
-109 -62 -126 -63 -242 -137 -338 -214 -94 -76 -283 -278 -348 -372 -36 -52
-66 -98 -66 -102 -1 -4 -9 -17 -19 -29 -17 -21 -28 -23 -113 -23 -90 0 -290
-27 -373 -50 -110 -31 -262 -96 -360 -153 -124 -74 -301 -234 -395 -357 -31
-41 -60 -82 -63 -90 -4 -8 -16 -28 -27 -45 -20 -32 -90 -172 -90 -181 0 -3 -6
-20 -14 -37 -28 -65 -73 -240 -78 -307 l-3 -35 -495 0 c-519 0 -522 0 -685 47
-328 95 -612 371 -729 708 -70 205 -75 487 -10 692 25 79 101 235 148 302 95
137 259 280 419 364 175 93 456 143 628 113 61 -11 70 -11 110 8 30 14 55 37
77 70 17 28 32 53 32 57 0 4 30 52 67 108 50 75 108 142 227 260 154 154 159
161 164 206 5 57 -7 82 -60 120 -61 44 -101 41 -174 -14 -80 -59 -239 -219
-310 -311 -48 -61 -124 -175 -124 -184 0 -25 -37 -34 -148 -36 -359 -7 -689
-141 -943 -383 -73 -69 -185 -206 -236 -287 -24 -38 -102 -200 -118 -245 -57
-159 -67 -221 -72 -443 -7 -287 22 -428 133 -652 54 -109 53 -108 136 -221
136 -185 363 -365 560 -444 124 -51 178 -67 291 -91 83 -17 141 -19 593 -19
375 0 503 -3 512 -12 7 -7 12 -24 12 -39 0 -59 71 -312 109 -387 53 -105 72
-140 105 -192 174 -271 475 -494 786 -583 191 -54 138 -52 1300 -52 l1075 0
36 22 c49 31 74 101 53 152 -19 44 -31 59 -68 79 -28 16 -124 17 -1111 22
-763 4 -1090 9 -1115 17 -19 6 -64 19 -100 29 -80 21 -223 89 -310 146 -132
87 -297 268 -359 396 -47 95 -71 150 -71 164 0 8 -4 18 -9 23 -9 10 -21 61
-42 185 -15 88 -6 327 15 410 33 127 76 230 137 331 53 87 78 118 169 209 140
140 283 224 490 288 49 16 234 42 291 42 27 0 82 -5 124 -11 60 -9 82 -9 107
2 32 13 98 75 98 92 0 16 89 157 150 237 171 225 450 432 695 515 28 9 57 20
65 24 8 4 60 18 115 30 55 12 116 26 135 32 57 17 375 23 455 9 39 -6 90 -15
115 -20 113 -19 280 -76 381 -130 136 -72 213 -120 278 -175 210 -174 341
-336 445 -550 59 -121 60 -124 86 -205 11 -36 25 -79 30 -96 6 -16 21 -93 34
-169 23 -136 25 -140 60 -171 31 -27 47 -32 113 -38 117 -11 213 -36 303 -79
229 -110 402 -335 445 -582 61 -339 -86 -665 -379 -844 -80 -49 -126 -68 -253
-101 -23 -5 -257 -10 -568 -10 -341 0 -544 -4 -568 -11 -21 -5 -52 -23 -70
-39 -29 -26 -32 -33 -32 -89 1 -57 3 -64 38 -99 l37 -37 573 0 c521 0 579 2
647 19 41 10 90 24 108 32 18 8 37 14 42 14 21 0 149 66 225 115 44 29 112 84
151 121 70 69 164 184 164 202 0 5 6 14 13 20 22 18 75 135 106 232 52 164 62
314 35 528 -6 48 -4 54 20 79 37 37 63 101 82 200 17 91 15 117 -33 482 -24
191 0 260 114 315 21 10 45 22 54 26 8 4 76 34 150 65 180 76 242 109 317 163
60 44 123 122 137 170 3 12 13 22 21 22 11 0 14 19 14 95 0 78 -3 95 -15 95
-8 0 -15 6 -15 14 0 42 -133 255 -238 381 -33 40 -124 181 -138 214 -17 41
-18 75 -1 121 20 55 33 75 156 240 64 85 124 166 132 180 36 57 77 137 83 163
3 15 13 27 21 27 12 0 15 18 15 101 0 65 -4 98 -10 94 -6 -3 -19 14 -29 38
-45 105 -175 204 -366 282 -16 6 -48 20 -70 30 -22 10 -53 23 -70 30 -258 109
-291 151 -265 346 6 46 15 122 20 169 5 47 14 125 21 175 9 76 9 103 -6 180
-20 102 -32 131 -83 194 -40 49 -83 78 -157 103 -62 23 -284 25 -406 4 -120
-20 -296 -29 -347 -17 -24 5 -54 19 -67 31 -27 26 -104 178 -171 340 -90 216
-177 334 -288 393 -34 18 -58 21 -141 21 -93 -1 -105 -3 -170 -35 -69 -34
-138 -76 -173 -104 -59 -48 -271 -201 -315 -227 -41 -24 -63 -30 -107 -30 -69
0 -105 20 -298 165 -242 183 -324 226 -441 232 -42 2 -92 1 -111 -4z m165
-290 c29 -16 79 -48 100 -63 6 -4 37 -28 70 -53 165 -124 238 -172 320 -214
l90 -45 105 0 c97 0 111 3 174 33 81 37 185 104 276 176 74 60 190 141 239
169 67 37 130 22 164 -40 34 -63 87 -178 117 -249 118 -287 186 -382 320 -448
l65 -32 175 1 c117 1 205 6 264 17 86 17 269 23 313 11 34 -9 53 -62 53 -145
0 -71 -7 -137 -36 -349 -18 -134 -18 -184 2 -273 41 -180 139 -273 409 -387
28 -11 58 -25 67 -30 10 -6 23 -10 28 -10 6 0 58 -22 114 -50 102 -49 176
-105 176 -135 0 -26 -33 -99 -69 -150 -59 -85 -114 -159 -133 -178 -34 -34
-146 -213 -171 -272 -45 -109 -52 -163 -32 -246 18 -74 64 -180 91 -210 8 -8
14 -19 14 -23 0 -3 53 -78 118 -164 132 -178 134 -181 163 -241 46 -96 -1
-133 -356 -281 -131 -55 -188 -85 -257 -137 -91 -69 -134 -136 -162 -255 -20
-83 -20 -133 -2 -273 31 -239 38 -297 34 -301 -3 -2 -29 24 -59 58 -76 88
-150 155 -233 212 -77 53 -210 119 -264 131 -49 10 -50 31 -5 78 91 96 177
211 280 373 17 26 143 282 143 290 0 3 6 20 14 37 8 18 21 55 30 82 8 28 20
66 27 85 19 58 39 149 54 245 8 50 17 96 20 104 3 8 6 123 6 255 0 197 -4 262
-21 356 -69 396 -214 720 -463 1030 -125 157 -381 382 -542 476 -27 16 -59 34
-70 41 -104 61 -313 151 -430 186 -227 68 -420 97 -639 97 -249 0 -536 -49
-736 -125 -368 -140 -656 -334 -893 -603 -83 -94 -197 -245 -197 -261 0 -4
-11 -18 -24 -30 -23 -22 -26 -22 -53 -8 -41 23 -154 68 -215 87 -20 6 -38 17
-41 24 -3 7 4 37 14 66 24 70 26 286 3 427 -8 54 -16 154 -17 224 -2 122 -1
128 22 153 24 25 29 26 136 26 62 0 152 -7 201 -17 60 -11 146 -16 264 -17
170 0 177 1 233 27 114 54 212 173 286 352 18 44 39 94 47 110 55 122 74 167
74 174 0 17 81 120 98 124 25 7 72 -3 107 -22z m1021 -1016 c119 -23 211 -49
354 -100 73 -26 241 -110 299 -149 29 -20 55 -36 57 -36 5 0 66 -42 74 -50 3
-3 32 -27 65 -52 63 -49 186 -165 245 -233 239 -274 382 -582 452 -975 8 -46
13 -153 13 -275 0 -186 -7 -265 -36 -395 -5 -25 -14 -65 -20 -89 -31 -148
-149 -413 -247 -556 -65 -95 -171 -233 -200 -259 -21 -18 -21 -18 -35 16 -8
19 -18 46 -21 59 -14 47 -57 153 -99 239 -184 377 -505 693 -883 870 -111 53
-211 88 -344 123 -231 62 -558 71 -810 23 -86 -16 -105 -10 -115 35 -9 40 -87
219 -127 289 -38 69 -129 208 -154 237 -11 12 -46 54 -79 94 -76 92 -146 164
-210 215 -27 21 -52 41 -55 44 -3 3 -17 13 -32 23 -16 10 -28 24 -28 33 0 9
20 42 45 74 25 32 45 63 45 68 0 6 4 12 9 14 5 2 26 23 46 48 179 216 382 374
645 501 98 47 121 56 230 90 36 12 83 27 105 35 23 8 52 14 66 14 14 0 52 7
84 16 102 27 183 33 381 29 126 -2 221 -9 280 -20z"/>
<path d="M5683 7144 c-17 -7 -43 -29 -57 -47 -24 -32 -26 -41 -26 -144 l0
-110 34 -38 c31 -37 36 -39 92 -40 44 0 66 5 86 20 49 37 58 64 58 175 0 117
-13 146 -80 180 -45 23 -63 24 -107 4z"/>
<path d="M6495 7137 c-57 -31 -85 -91 -85 -178 0 -80 25 -147 65 -173 66 -43
155 -25 196 40 18 30 20 46 17 143 -3 122 -10 136 -80 172 -48 24 -64 24 -113
-4z"/>
<path d="M5990 6381 c-36 -10 -90 -85 -90 -126 0 -45 33 -99 76 -124 32 -19
51 -21 205 -21 214 0 247 13 279 111 13 39 12 44 -11 88 -39 74 -63 81 -264
80 -93 -1 -181 -4 -195 -8z"/>
<path d="M3339 1967 c-60 -40 -69 -72 -69 -249 0 -175 -1 -178 -65 -137 -16
10 -37 22 -45 26 -8 4 -47 25 -85 48 -39 23 -86 47 -104 53 -75 26 -159 -30
-168 -110 -7 -73 17 -103 148 -181 63 -37 124 -72 137 -77 39 -17 27 -46 -35
-82 -32 -18 -66 -37 -75 -43 -9 -5 -36 -21 -60 -33 -24 -13 -58 -38 -75 -55
-76 -72 -44 -191 57 -217 50 -13 82 -3 185 59 28 17 57 34 65 38 8 3 32 17 52
30 68 42 68 42 68 -132 0 -176 8 -207 62 -249 59 -45 131 -33 180 29 22 28 23
39 26 202 4 191 4 192 67 152 17 -10 37 -22 45 -26 8 -4 47 -26 86 -49 101
-59 133 -68 184 -53 86 26 121 141 62 205 -25 27 -218 149 -264 167 -28 10
-22 46 8 57 15 6 38 19 53 29 14 10 58 35 96 55 94 50 135 97 135 155 0 53
-29 105 -68 119 -57 21 -66 22 -100 11 -19 -6 -87 -42 -150 -80 -63 -38 -123
-69 -132 -69 -17 0 -19 15 -22 174 -3 170 -4 175 -28 201 -55 59 -115 70 -171
32z"/>
<path d="M7615 1971 c-68 -41 -69 -46 -73 -234 -2 -95 -7 -175 -11 -179 -4 -4
-64 25 -133 66 -69 40 -141 78 -158 85 -47 16 -101 -1 -139 -44 -40 -45 -43
-114 -8 -157 20 -24 225 -154 270 -171 12 -4 17 -15 15 -28 -3 -19 -25 -35
-140 -98 -134 -73 -168 -108 -168 -173 0 -36 6 -54 26 -78 29 -34 73 -60 103
-60 24 0 89 29 156 69 28 17 57 34 65 38 8 3 32 17 52 30 66 41 65 42 70 -150
3 -162 5 -175 26 -202 52 -66 144 -73 200 -17 36 36 42 70 42 228 0 176 3 182
69 140 22 -14 43 -26 45 -26 2 0 38 -20 79 -44 102 -60 141 -71 192 -53 49 17
76 52 82 108 8 84 -22 113 -237 232 -68 37 -89 71 -53 84 10 3 51 26 90 50 40
23 75 43 78 43 7 0 63 39 92 63 24 22 38 82 28 126 -15 68 -87 108 -160 90
-24 -6 -50 -17 -56 -25 -6 -8 -15 -14 -19 -14 -5 0 -53 -26 -107 -58 -54 -32
-104 -57 -111 -54 -9 3 -12 46 -12 160 0 177 -9 209 -69 249 -41 28 -86 29
-126 4z"/>
<path d="M1215 1351 c-72 -44 -85 -86 -85 -278 0 -83 -4 -143 -9 -143 -6 0
-40 18 -78 41 -37 22 -75 45 -83 50 -8 5 -46 24 -85 44 -63 32 -74 34 -108 24
-64 -18 -115 -92 -102 -151 8 -33 58 -95 89 -109 12 -5 28 -13 36 -19 56 -37
169 -100 179 -100 6 0 11 -9 11 -19 0 -14 -30 -37 -107 -82 -59 -34 -117 -67
-128 -73 -89 -47 -105 -154 -33 -223 25 -24 37 -28 88 -28 41 0 64 5 77 18 11
9 22 17 25 17 4 0 52 27 108 60 56 33 106 60 111 60 5 0 9 -63 9 -142 0 -158
8 -203 46 -247 46 -55 139 -54 193 1 l31 32 0 173 c0 137 3 175 14 179 7 3 35
-8 62 -24 27 -15 56 -31 64 -35 8 -4 29 -16 45 -26 80 -52 112 -64 160 -65 78
-1 135 55 135 132 0 40 -48 102 -101 130 -24 13 -57 32 -74 42 -16 10 -48 28
-70 40 -46 25 -75 49 -75 62 0 5 8 11 18 15 9 3 24 12 32 18 8 7 35 24 60 37
135 74 163 94 185 127 48 69 20 157 -60 192 -48 21 -79 16 -148 -24 -23 -14
-58 -34 -77 -44 -19 -11 -61 -34 -92 -52 -32 -18 -62 -30 -68 -26 -6 4 -10 71
-10 178 -1 163 -2 173 -23 198 -26 32 -77 59 -109 59 -13 0 -36 -8 -53 -19z"/>
<path d="M5485 1354 c-64 -33 -70 -51 -73 -239 -2 -93 -7 -174 -12 -179 -7 -7
-64 21 -165 81 -11 6 -51 28 -90 47 -64 33 -73 35 -109 25 -21 -6 -52 -25 -67
-42 -25 -27 -29 -40 -29 -88 0 -50 3 -59 34 -90 19 -19 52 -43 73 -54 21 -11
70 -38 108 -61 39 -22 78 -43 87 -47 11 -4 15 -12 12 -21 -5 -13 -99 -72 -189
-120 -94 -50 -124 -87 -125 -154 0 -46 4 -57 34 -89 31 -34 38 -37 87 -37 57
0 68 5 243 109 43 25 84 44 92 41 10 -4 13 -47 16 -180 l3 -176 31 -31 c54
-54 156 -49 199 9 18 24 20 46 23 199 3 138 6 172 18 177 8 3 48 -15 90 -39
42 -25 77 -45 80 -45 2 0 27 -14 56 -32 41 -26 63 -32 105 -32 46 0 57 4 88
34 32 31 35 39 35 91 0 83 -5 88 -195 197 -22 12 -54 30 -72 39 -31 16 -47 38
-39 52 3 4 24 17 48 29 24 13 57 32 73 42 17 10 50 29 74 42 25 13 60 38 78
56 30 29 33 38 33 90 -1 61 -21 97 -69 122 -52 27 -102 11 -246 -77 -11 -7
-27 -15 -35 -19 -8 -4 -32 -18 -53 -31 -64 -40 -67 -35 -67 148 0 187 -9 218
-71 249 -45 23 -73 24 -114 4z"/>
</g>
</svg>
